<?xml version="1.0" standalone="no"?>
<!DOCTYPE svg PUBLIC "-//W3C//DTD SVG 20010904//EN"
 "http://www.w3.org/TR/2001/REC-SVG-20010904/DTD/svg10.dtd">
<svg version="1.0" xmlns="http://www.w3.org/2000/svg"
 width="500.000000pt" height="500.000000pt" viewBox="0 0 500.000000 500.000000"
 preserveAspectRatio="xMidYMid meet">

<g transform="translate(0.000000,500.000000) scale(0.100000,-0.100000)"
fill="#000000" stroke="none">
<path d="M1330 3991 c-102 -66 -221 -142 -265 -170 l-80 -50 -5 87 -5 87 -130
0 -130 0 -5 -178 -5 -179 -200 -130 c-192 -124 -229 -157 -184 -166 9 -2 279
167 600 374 321 207 589 377 595 377 6 0 80 -45 165 -100 85 -55 316 -205 514
-333 198 -128 390 -252 426 -276 73 -48 113 -57 107 -25 -3 18 -138 109 -795
533 -51 33 -93 63 -93 68 0 8 172 120 184 120 8 0 85 -50 820 -534 164 -108
304 -196 311 -196 15 0 29 30 18 40 -4 4 -159 106 -343 227 -184 121 -435 286
-558 367 -123 81 -230 150 -238 153 -8 3 -67 -28 -134 -71 l-120 -75 -130 84
c-71 47 -131 85 -133 85 -1 0 -85 -54 -187 -119z m-402 -177 l3 -82 -80 -51
c-44 -28 -82 -51 -85 -51 -4 0 -6 61 -6 135 l0 136 83 -3 82 -3 3 -81z"/>
<path d="M541 3250 c-96 -26 -162 -69 -212 -138 -80 -113 -108 -296 -60 -396
44 -89 148 -136 274 -121 122 13 212 68 257 156 l19 36 -44 21 c-50 24 -101
21 -110 -7 -3 -10 -21 -33 -41 -52 -30 -29 -42 -34 -83 -34 -98 0 -137 51
-128 169 8 114 54 206 121 247 59 36 152 15 184 -41 14 -25 21 -30 42 -25 31
8 110 46 117 57 2 5 -7 28 -21 52 -50 85 -172 115 -315 76z"/>
<path d="M1900 3263 c-98 -16 -181 -68 -206 -130 -18 -43 -18 -117 1 -153 22
-43 60 -68 149 -96 91 -28 116 -46 116 -81 0 -31 -25 -79 -45 -87 -48 -18
-130 6 -172 51 -31 32 -35 34 -66 24 -19 -6 -48 -27 -66 -45 l-33 -34 37 -40
c51 -57 109 -77 215 -76 179 3 280 75 297 212 11 98 -38 152 -177 192 -87 25
-110 42 -110 81 0 76 127 93 198 26 16 -15 25 -18 33 -10 6 6 17 9 23 7 17 -6
88 70 81 87 -21 54 -162 91 -275 72z"/>
<path d="M1222 3252 c-17 -5 -65 -83 -201 -329 l-179 -323 58 0 c107 0 113 4
156 86 37 71 41 75 68 69 16 -3 64 -5 106 -5 l78 0 7 -76 8 -76 78 4 c44 3 81
7 84 10 5 4 -68 571 -80 626 -5 21 -10 22 -83 21 -42 -1 -87 -4 -100 -7z m69
-191 c-12 -22 -14 -67 -5 -134 5 -36 11 -47 28 -50 11 -2 -18 -5 -66 -6 -49 0
-88 2 -88 5 0 7 97 190 119 224 16 25 16 25 19 3 2 -12 -2 -31 -7 -42z"/>
<path d="M2542 3252 c-17 -5 -65 -83 -201 -329 l-179 -323 58 0 c107 0 113 4
156 86 32 62 42 74 59 69 11 -2 59 -5 107 -5 l86 0 7 -76 8 -76 78 4 c44 3 81
7 84 10 5 4 -68 571 -80 626 -5 21 -10 22 -83 21 -42 -1 -87 -4 -100 -7z m65
-189 c-11 -22 -12 -43 -5 -105 9 -67 13 -77 32 -81 11 -2 -18 -5 -66 -6 -49 0
-88 2 -88 5 0 6 96 189 119 224 12 20 16 22 19 8 2 -9 -3 -29 -11 -45z"/>
<path d="M3340 2905 l0 -65 620 0 620 0 0 65 0 65 -620 0 -620 0 0 -65z"/>
<path d="M1837 2389 c-159 -32 -260 -130 -303 -292 -17 -63 -18 -177 -3 -232
15 -55 82 -120 138 -135 82 -22 190 8 241 66 25 29 30 31 30 15 0 -11 -8 -26
-18 -33 -10 -7 -21 -21 -25 -32 -7 -17 -3 -18 68 -14 41 3 78 7 80 10 7 6 75
321 75 343 0 13 -20 15 -124 15 -165 0 -183 -4 -191 -44 -4 -17 -9 -39 -11
-48 -5 -16 3 -18 70 -18 84 0 87 -3 62 -63 -38 -92 -150 -116 -215 -46 -65 70
-14 300 82 370 64 46 159 35 203 -25 17 -24 22 -25 54 -16 46 13 100 47 100
62 0 29 -41 77 -83 97 -53 26 -158 35 -230 20z"/>
<path d="M4488 2385 c-156 -39 -245 -134 -284 -302 -65 -277 112 -426 396
-331 146 48 240 200 240 388 0 123 -33 190 -114 229 -58 28 -162 35 -238 16z
m141 -132 c42 -31 57 -93 42 -178 -16 -95 -53 -169 -105 -207 -36 -26 -47 -29
-88 -25 -86 10 -118 50 -118 145 0 114 52 228 124 273 38 25 106 21 145 -8z"/>
<path d="M2384 2383 c-18 -3 -25 -19 -43 -106 -56 -257 -71 -338 -71 -369 1
-46 31 -109 68 -140 80 -67 279 -58 394 17 59 39 91 119 143 363 25 117 45
220 45 228 0 15 -69 20 -127 8 l-30 -6 -43 -206 c-58 -280 -76 -318 -157 -329
-61 -8 -109 17 -123 64 -10 33 -5 64 34 248 25 115 46 215 46 222 0 13 -84 16
-136 6z"/>
<path d="M3143 2383 c-17 -3 -24 -15 -33 -56 -6 -29 -37 -175 -69 -324 l-57
-273 52 0 c28 0 65 3 82 6 28 6 31 11 42 68 6 33 18 91 27 129 l15 67 106 0
c153 0 151 -1 167 78 l7 32 -126 0 c-148 0 -137 -15 -101 145 4 19 12 20 139
20 77 0 139 4 145 10 5 6 12 31 16 58 l7 47 -198 -1 c-110 -1 -209 -4 -221 -6z"/>
<path d="M3733 2383 c-27 -5 -20 21 -93 -328 -34 -159 -63 -298 -66 -307 -5
-17 9 -18 194 -18 241 0 258 3 265 40 4 15 9 39 13 54 l6 26 -146 0 c-80 0
-146 2 -146 4 0 2 25 120 55 261 30 142 55 262 55 267 0 8 -96 9 -137 1z"/>
<path d="M120 2020 l0 -70 610 0 610 0 0 70 0 70 -610 0 -610 0 0 -70z"/>
</g>
</svg>
